:SAMPLES-PER-SECOND 30
:FULLY-SPECIFIED
:DEGREES
237
root  36.4717 38.7633 -20.3822 9.3475 77.1947 8.20598
RightUpLeg  -23.213 -10.6841 -5.02313
RightLeg  9.34719 1.31926 5.35486
RightFoot  13.1546 -0.137287 1.05708
RightToes  0.000482159 0.542163 -0.142577
Spine  41.8266 -3.36434 9.43375
Spine1  6.51919 0.420265 -1.08148
HEad  -9.6331 -9.06425 0.0972253
LeftShoulder1  11.6703 -17.5142 -48.4681
LeftArm  -2.33212 17.1748 -20.3616
LeftForeArm  21.4958 -12.7491 -6.44097
LeftHand  -0.25398 0.0180481 5.50724
RightShoulder  6.61998 12.4895 35.4149
RightArm  20.0475 -8.31677 26.0435
RightForeArm  -20.079 20.6957 6.63751
RightHand  -3.43695 9.15779 -27.3482
LeftUpLeg  -10.8329 -7.95485 1.87944
LeftLeg  36.6082 -3.03985 -2.05471
LeftFoot  -16.445 -0.260644 -8.0246
LeftToes  1.06248e-005 4.65854e-005 -8.185e-006
238
root  36.0145 38.543 -21.1206 4.87601 74.4956 5.2178
RightUpLeg  -22.4464 -9.67679 -5.04167
RightLeg  8.25958 2.60506 5.16932
RightFoot  13.1736 -0.915571 4.62544
RightToes  0.000482159 0.542163 -0.142577
Spine  39.9177 -3.2448 8.83726
Spine1  6.6274 0.233233 -1.29806
HEad  -6.82602 -8.22713 0.105376
LeftShoulder1  11.4309 -17.1314 -48.3554
LeftArm  -2.50883 20.0627 -20.67
LeftForeArm  20.6685 -13.8255 -5.96857
LeftHand  -0.25398 0.0180481 5.50724
RightShoulder  6.50861 12.0934 35.7474
RightArm  20.5942 -12.59 25.7401
RightForeArm  -21.2248 22.1399 6.20181
RightHand  -3.7359 9.93639 -28.1879
LeftUpLeg  -6.61698 -9.11445 0.71354
LeftLeg  36.3928 -4.39327 -3.09979
LeftFoot  -18.2758 -0.241843 -5.92737
LeftToes  1.06248e-005 4.65854e-005 -8.185e-006
239
root  35.5155 38.3428 -21.885 2.03537 71.3767 3.91341
RightUpLeg  -21.1851 -8.84984 -5.30444
RightLeg  6.09484 3.5512 4.99717
RightFoot  13.3431 -2.06346 9.82518
RightToes  0.000482159 0.542163 -0.142577
Spine  38.4007 -3.06437 7.6204
Spine1  6.58312 -0.0314516 -1.65457
HEad  -4.35383 -6.94432 0.0291484
LeftShoulder1  11.1531 -16.6953 -48.2
LeftArm  -2.95743 21.6145 -21.1532
LeftForeArm  20.1667 -14.1954 -5.7543
LeftHand  -0.25398 0.0180481 5.50724
RightShoulder  6.38638 11.7114 35.9869
RightArm  20.5785 -16.1742 25.6678
RightForeArm  -21.9575 23.1835 6.08903
RightHand  -3.71202 9.77014 -28.2999
LeftUpLeg  -2.70785 -9.05186 -1.27124
LeftLeg  34.4178 -3.70699 -2.38667
LeftFoot  -21.4742 -0.0338294 -1.8739
LeftToes  1.06248e-005 4.65854e-005 -8.185e-006
240
root  34.9095 38.1493 -22.6682 0.74234 68.1217 4.28081
RightUpLeg  -19.8909 -8.36463 -5.81598
RightLeg  3.73248 5.23696 4.89559
RightFoot  12.8227 -3.00864 14.4258
RightToes  0.000482159 0.542163 -0.142577
Spine  37.3063 -2.69731 5.59368
Spine1  6.5664 -0.469657 -1.51686
HEad  -2.5435 -5.43415 -0.0667513
LeftShoulder1  10.9673 -16.2823 -48.3899
LeftArm  -3.75271 21.5351 -21.3603
LeftForeArm  19.9362 -13.9263 -5.72945
LeftHand  -0.25398 0.0180481 5.50724
RightShoulder  6.18472 11.3054 35.782
RightArm  19.6307 -18.9935 26.3287
RightForeArm  -21.8379 23.6792 6.10524
RightHand  -3.38555 8.95059 -27.3273
LeftUpLeg  -0.29191 -7.91622 -3.63109
LeftLeg  32.3778 -0.441369 0.0620391
LeftFoot  -24.1822 0.300901 1.43264
LeftToes  1.06248e-005 4.65854e-005 -8.185e-006
241
root  34.1607 38.02 -23.4586 0.429688 64.7844 5.45865
RightUpLeg  -18.7892 -8.15245 -6.21422
RightLeg  0.909851 7.27426 4.55317
RightFoot  10.1469 -3.09971 16.5943
RightToes  0.000482159 0.542163 -0.142577
Spine  36.3079 -2.15273 3.08631
Spine1  6.90291 -0.970921 -0.925006
HEad  -1.40572 -3.94018 0.0257424
LeftShoulder1  10.892 -16.0087 -48.7347
LeftArm  -4.69565 20.0868 -21.1388
LeftForeArm  19.8919 -13.7691 -5.65494
LeftHand  -0.25398 0.0180481 5.50724
RightShoulder  5.97403 10.8942 35.5198
RightArm  17.4615 -21.0946 27.7372
RightForeArm  -21.2892 23.8311 6.10327
RightHand  -3.01592 8.02802 -26.0819
LeftUpLeg  -0.0634828 -5.36115 -5.47705
LeftLeg  31.8757 2.61071 2.1181
LeftFoot  -24.7328 0.482796 2.85926
LeftToes  1.06248e-005 4.65854e-005 -8.185e-006
242
root  33.346 37.9914 -24.2111 0.368103 61.1255 6.48226
RightUpLeg  -17.3061 -8.00279 -6.38431
RightLeg  -3.21062 5.47145 4.27083
RightFoot  5.9467 -2.59585 17.2327
RightToes  0.000482159 0.542163 -0.142577
Spine  35.2582 -1.58391 0.499247
Spine1  7.38751 -1.33747 -0.665304
HEad  -0.404125 -2.33485 0.346731
LeftShoulder1  10.8053 -15.8156 -48.8309
LeftArm  -5.22572 18.3798 -20.7321
LeftForeArm  19.3704 -15.0435 -5.22718
LeftHand  -0.25398 0.0180481 5.50724
RightShoulder  5.86599 10.5606 35.7321
RightArm  14.6131 -22.6086 29.523
RightForeArm  -20.6548 23.81 6.07247
RightHand  -2.73261 7.1072 -25.3956
LeftUpLeg  -1.15699 -1.18206 -6.25192
LeftLeg  32.3555 3.06114 2.45011
LeftFoot  -23.6834 0.486499 3.1798
LeftToes  1.06248e-005 4.65854e-005 -8.185e-006
243
root  32.5722 38.0262 -24.8913 -0.270477 57.0354 6.69814
RightUpLeg  -15.5209 -7.86379 -6.32731
RightLeg  -6.59527 -3.28212 5.50283
RightFoot  2.31781 -2.05781 17.1545
RightToes  0.000482159 0.542163 -0.142577
Spine  34.2739 -1.23982 -1.85177
Spine1  7.3687 -1.58282 -0.977143
HEad  0.982711 -0.389826 0.577947
LeftShoulder1  10.6469 -15.5846 -48.6971
LeftArm  -5.53706 17.5397 -20.4014
LeftForeArm  18.1717 -18.4635 -4.40441
LeftHand  -0.25398 0.0180481 5.50724
RightShoulder  5.86814 10.3771 36.2855
RightArm  12.0585 -23.631 31.405
RightForeArm  -19.6242 23.5512 5.99421
RightHand  -2.46236 6.11756 -24.8511
LeftUpLeg  -2.13027 3.84773 -6.09888
LeftLeg  32.5509 2.05184 1.78448
LeftFoot  -22.5061 0.449657 3.21634
LeftToes  1.06248e-005 4.65854e-005 -8.185e-006
244
root  31.8579 38.2074 -25.531 -1.13547 52.5142 6.31906
RightUpLeg  -14.4923 -8.0298 -5.94581
RightLeg  -6.85301 -15.501 7.91591
RightFoot  0.824776 -1.56276 14.7086
RightToes  0.000482159 0.542163 -0.142577
Spine  33.2058 -1.09382 -3.79413
Spine1  7.01237 -1.91492 -1.07224
HEad  2.66423 1.64212 0.393881
LeftShoulder1  10.4593 -15.2951 -48.5758
LeftArm  -7.68292 17.6849 -20.1975
LeftForeArm  18.0201 -23.2281 -4.05575
LeftHand  -0.25398 0.0180481 5.50724
RightShoulder  5.8875 10.3082 36.6277
RightArm  10.213 -24.2582 33.2864
RightForeArm  -18.3012 23.1912 5.9043
RightHand  -2.12877 5.03897 -23.7278
LeftUpLeg  -2.47807 8.67355 -5.61343
LeftLeg  31.0878 1.66627 1.44978
LeftFoot  -20.9885 0.3894 3.11555
LeftToes  1.06248e-005 4.65854e-005 -8.185e-006
245
root  31.1892 38.6033 -26.16 -1.11911 47.6625 5.89571
RightUpLeg  -14.4409 -8.65257 -5.57771
RightLeg  -4.70342 -23.9535 8.9709
RightFoot  1.65469 -1.17373 10.3765
RightToes  0.000482159 0.542163 -0.142577
Spine  31.2599 -0.968717 -5.33722
Spine1  7.12719 -2.39929 -0.34355
HEad  4.25416 2.9741 -0.0770029
LeftShoulder1  10.2506 -14.9748 -48.4303
LeftArm  -11.9986 18.0738 -20.1896
LeftForeArm  19.4848 -27.9476 -4.96256
LeftHand  -0.25398 0.0180481 5.50724
RightShoulder  5.84678 10.2419 36.5396
RightArm  9.0694 -24.7233 35.0117
RightForeArm  -17.6517 23.2527 5.87977
RightHand  -1.81068 3.95654 -22.5537
LeftUpLeg  -2.82659 12.9407 -5.42441
LeftLeg  27.5522 2.19699 1.62181
LeftFoot  -18.2704 0.279944 2.80564
LeftToes  1.06248e-005 4.65854e-005 -8.185e-006
246
root  30.5974 39.0678 -26.7141 -0.03302 42.7974 5.78602
RightUpLeg  -15.838 -10.7436 -5.38925
RightLeg  1.31009 -24.1679 7.19284
RightFoot  1.4656 -0.820906 7.37215
RightToes  0.000482159 0.542163 -0.142577
Spine  28.0642 -0.907815 -6.78953
Spine1  7.66064 -2.84708 0.612022
HEad  5.7273 2.90722 -0.352888
LeftShoulder1  9.96534 -14.6099 -48.0261
LeftArm  -15.1793 18.167 -20.492
LeftForeArm  19.9492 -32.1029 -5.93601
LeftHand  -0.25398 0.0180481 5.50724
RightShoulder  5.75838 10.123 36.2693
RightArm  8.60333 -25.3237 36.2807
RightForeArm  -17.5833 24.0783 5.99094
RightHand  -1.61863 3.07989 -22.2288
LeftUpLeg  -3.43034 17.0166 -5.63411
LeftLeg  23.0671 2.67036 1.55578
LeftFoot  -14.9534 0.165689 2.40345
LeftToes  1.06248e-005 4.65854e-005 -8.185e-006
247
root  30.0764 39.494 -27.174 0.589111 37.9591 5.18248
RightUpLeg  -17.4474 -17.9057 -3.48155
RightLeg  8.61973 -15.481 3.7774
RightFoot  -0.159906 -0.5725 5.83325
RightToes  0.000482159 0.542163 -0.142577
Spine  24.9182 -1.0555 -7.44258
Spine1  7.91813 -3.05811 1.04181
HEad  7.31989 1.43909 -0.15878
LeftShoulder1  9.59569 -14.1958 -47.3152
LeftArm  -17.2104 18.2099 -20.8495
LeftForeArm  20.4091 -35.947 -6.91319
LeftHand  -0.25398 0.0180481 5.50724
RightShoulder  5.67976 10.0051 36.0617
RightArm  8.8036 -26.1376 36.8927
RightForeArm  -16.497 25.4434 6.25904
RightHand  -1.50236 2.42808 -22.3137
LeftUpLeg  -3.46962 18.523 -5.04639
LeftLeg  18.5775 5.48597 0.775597
LeftFoot  -11.9983 0.0830839 1.8495
LeftToes  1.06248e-005 4.65854e-005 -8.185e-006
248
root  29.5954 39.8484 -27.5578 -0.151978 33.0572 3.76746
RightUpLeg  -18.0579 -26.6338 -0.756907
RightLeg  14.679 -5.88377 0.0863565
RightFoot  -1.51687 -0.409606 4.65077
RightToes  0.000482159 0.542163 -0.142577
Spine  23.0759 -1.35315 -6.87224
Spine1  7.58105 -3.06624 0.852916
HEad  8.98991 -0.815618 0.296226
LeftShoulder1  9.23901 -13.8192 -46.5297
LeftArm  -18.5817 18.6333 -20.9647
LeftForeArm  21.4395 -39.8418 -7.97738
LeftHand  -0.25398 0.0180481 5.50724
RightShoulder  5.62169 9.92868 35.8731
RightArm  9.73701 -26.8791 36.9754
RightForeArm  -14.0221 26.8748 6.48447
RightHand  -1.3535 1.7874 -21.8759
LeftUpLeg  -2.31493 13.1939 -2.90749
LeftLeg  14.5311 15.2199 -0.843029
LeftFoot  -9.65458 0.0414104 1.11892
LeftToes  1.06248e-005 4.65854e-005 -8.185e-006
